<?xml version="1.0" encoding="UTF-8"?>
<svg width="116px" height="48px" viewBox="0 0 116 48" version="1.1" xmlns="http://www.w3.org/2000/svg" xmlns:xlink="http://www.w3.org/1999/xlink">
    <title>btn-appstore-content</title>
    <g id="Gokada-Website" stroke="none" stroke-width="1" fill="none" fill-rule="evenodd">
        <g id="Mobile" transform="translate(-30.000000, -2786.000000)">
            <g id="download" transform="translate(0.000000, 2556.000000)">
                <g id="btn-appstore" transform="translate(20.000000, 230.000000)">
                    <g id="btn-appstore-content" transform="translate(10.000000, 0.000000)">
                        <rect id="Rectangle" x="0" y="0" width="116" height="48"></rect>
                        <path d="M16.3346635,17.0864873 C18.0820058,17.0864873 19.9334407,18.0524466 21.2527688,19.7237342 C16.9305195,22.1288977 17.6324674,28.3984956 22,30.0744416 C21.3986159,31.4278836 21.1108032,32.0319217 20.3368726,33.2280533 C19.2564279,34.8985048 17.7340899,36.9780586 15.84784,36.9954977 C14.171304,37.0112646 13.7409375,35.8873977 11.4660756,35.9001785 C9.19121366,35.9128397 8.7160344,37.0152063 7.03938084,36.9998409 C5.15289565,36.9820003 3.71030316,35.1038324 2.62997605,33.434217 C-0.390705582,28.7643586 -0.706393982,23.2841788 1.15633225,20.3707729 C2.48048278,18.300297 4.5685663,17.088279 6.53267979,17.088279 C8.53207887,17.088279 9.78906916,18.2018735 11.442199,18.2018735 C13.0456938,18.2018735 14.0233398,17.0864873 16.3346635,17.0864873 Z M15.8273743,11 C16.0588478,12.5799114 15.4205315,14.1264975 14.581205,15.2211001 C13.6814225,16.3940592 12.1319146,17.3024456 10.6342766,17.2553839 C10.3609309,15.7433177 11.0628789,14.1872955 11.9133792,13.1379629 C12.8505645,11.9823234 14.4558235,11.0959151 15.8273743,11 Z" id="Combined-Shape" fill="#FFFFFF"></path>
                        <path d="M51.2680904,25.0263137 C52.4982178,25.0263137 53.52191,25.5002294 54.3492666,26.4773433 C55.1690822,27.4497342 55.5818179,28.7311419 55.5818179,30.3211616 C55.5818179,32.1034734 55.1001358,33.4979624 54.1334052,34.5324265 C53.2719793,35.4459828 52.1964427,35.9050549 50.917972,35.9050549 C49.5337926,35.9050549 48.6121733,35.4115726 47.9388688,34.4186706 L47.9388688,40 L45.6496334,40 L45.6496334,28.651931 C45.6496334,27.5348825 45.596577,26.505816 45.5378649,25.1563976 L47.5763617,25.1563976 L47.7042895,26.9106415 L47.7448225,26.9106415 C48.5214119,25.696165 49.6922885,25.0263137 51.2680904,25.0263137 Z M62.724367,25.0263137 C63.9553023,25.0263137 64.9816877,25.5002294 65.8040619,26.4773433 C66.6285906,27.4497342 67.0390371,28.7311419 67.0390371,30.3211616 C67.0390371,32.1034734 66.5572203,33.4979624 65.5904897,34.5324265 C64.7269093,35.4459828 63.6496221,35.9050549 62.3677849,35.9050549 C60.9876453,35.9050549 60.0583504,35.4115726 59.3850458,34.4186706 L59.3850458,40 L57.0958104,40 L57.0958104,28.651931 C57.0958104,27.5348825 57.0532576,26.505816 56.997508,25.1563976 L59.030349,25.1563976 L59.1644713,26.9106415 L59.2043309,26.9106415 C59.9821323,25.696165 61.1509889,25.0263137 62.724367,25.0263137 Z M93.0032757,25.0075567 C94.5397566,25.0075567 95.7689414,25.5111597 96.6986402,26.5338839 C97.5829584,27.51734 98.0266661,28.7972634 98.0266661,30.3580007 C98.0266661,31.9683966 97.5719162,33.2820554 96.6563567,34.3173292 C95.6952818,35.3754082 94.4221976,35.9050549 92.8379121,35.9050549 C91.3045283,35.9050549 90.081538,35.3965941 89.1737888,34.3784579 C88.2668476,33.3635603 87.8145216,32.0754055 87.8145216,30.5292419 C87.8145216,28.9111543 88.2816603,27.5833266 89.2184962,26.5529107 C90.1568134,25.5166923 91.4157582,25.0075567 93.0032757,25.0075567 Z M84.7012962,22.617197 L84.7012962,25.1563976 L87.1251925,25.1563976 L87.1251925,27.0455834 L84.7012962,27.0455834 L84.7012962,32.0376218 C84.7012962,33.3268561 85.1004311,33.9659407 86.0019858,33.9659407 C86.4166068,33.9659407 86.7295587,33.9357137 87.003863,33.8647343 L87.0559768,35.6237012 C86.5974564,35.795752 85.9909436,35.8829245 85.2469421,35.8829245 C84.3360958,35.8829245 83.5912863,35.6071033 83.0778243,35.043991 C82.5580332,34.4876258 82.2773998,33.547486 82.2773998,32.2285645 L82.2773998,27.0455834 L80.7961299,27.0455834 L80.7961299,25.1563976 L82.2773998,25.1563976 L82.2773998,23.3055353 L84.7012962,22.617197 Z M76.4406575,20.9620004 C77.7558906,20.9620004 78.8512224,21.1931557 79.7253064,21.6487194 L79.140474,23.5418185 C78.3252369,23.0986695 77.3986352,22.8739913 76.3651128,22.8739913 C75.548125,22.8739913 74.9075431,23.0823415 74.4465988,23.4743476 C74.0614686,23.8378809 73.8678263,24.2748226 73.8678263,24.7890859 C73.8678263,25.3586754 74.0898821,25.8339406 74.5323778,26.2120476 C74.9197973,26.55453 75.6209766,26.9250803 76.6329533,27.3259925 C77.8817986,27.8239279 78.7939915,28.415243 79.382729,29.0910318 C79.9674267,29.7642566 80.2621994,30.6015707 80.2621994,31.603244 C80.2621994,32.8374221 79.8318231,33.8435484 78.9796889,34.6133916 C78.0335614,35.4604216 76.7218295,35.8814401 75.0391068,35.8814401 C73.4795989,35.8814401 72.2326389,35.5789005 71.2910898,34.9796238 L71.8293295,33.0448277 C72.8441341,33.6441044 73.9591264,33.9482633 75.1722865,33.9482633 C76.0487943,33.9482633 76.726408,33.7484144 77.2133418,33.357218 C77.6970438,32.9644023 77.9405107,32.4381292 77.9405107,31.7704369 C77.9405107,31.1907268 77.7400006,30.6957601 77.341943,30.2920141 C76.9376909,29.8915068 76.2778525,29.5214962 75.3469417,29.1741559 C72.8174712,28.2307775 71.5504467,26.8474887 71.5504467,25.0272583 C71.5504467,23.8378809 71.9922692,22.8599574 72.8880335,22.1010444 C73.7821819,21.3432111 74.9657166,20.9620004 76.4406575,20.9620004 Z M110.664996,24.9825925 C112.171582,24.9825925 113.307582,25.5404421 114.077303,26.656681 C114.690415,27.5481068 115,28.6898497 115,29.9946023 C115,30.4069846 114.97024,30.8239549 114.915298,31.0938386 L107.961948,31.0938386 C107.989419,32.0384314 108.325667,32.8667045 108.971635,33.4101152 C109.556468,33.8986047 110.3138,34.1215286 111.244981,34.1215286 C112.276618,34.1215286 113.211165,33.9465091 114.056162,33.6117183 L114.420689,35.2211697 C113.437664,35.6548727 112.268808,35.8620085 110.921256,35.8620085 C109.308018,35.8620085 108.038031,35.3868783 107.115335,34.4340539 C106.193446,33.4813645 105.728597,32.2010364 105.728597,30.5968478 C105.728597,29.0170836 106.159781,27.7080128 107.01582,26.6569509 C107.92128,25.540577 109.137133,24.9825925 110.664996,24.9825925 Z M39.5303725,21.1081424 L44.2103777,35.5469193 L41.7408313,35.5469193 L40.3903171,31.3637222 L35.6898435,31.3637222 L34.4007346,35.5469193 L32,35.5469193 L36.6519957,21.1081424 L39.5303725,21.1081424 Z M105.035093,25.0477694 L105.035093,27.2600059 C104.900432,27.218174 104.543042,27.2010364 104.287456,27.2010364 C103.472218,27.2010364 102.835676,27.5088387 102.391161,28.1240385 C102.003876,28.6698783 101.803231,29.3478261 101.803231,30.1860848 L101.803231,35.5469193 L99.5139958,35.5469193 L99.5139958,28.5048444 C99.5139958,27.3077753 99.4643059,26.2359323 99.4235037,25.1563976 L101.439781,25.1563976 L101.525964,27.315467 L101.589524,27.315467 C101.831779,26.6407578 102.215832,26.0271773 102.748147,25.614795 C103.263225,25.2379025 103.841459,25.0327909 104.441912,25.0327909 C104.654407,25.0327909 104.900432,25.0195666 105.035093,25.0477694 Z M92.918574,26.7060697 C91.9911643,26.7060697 91.2825786,27.1184519 90.7988766,27.948884 C90.3795426,28.6322295 90.17405,29.4665749 90.17405,30.4531347 C90.17405,31.4148652 90.3795426,32.2346369 90.7988766,32.9196017 C91.2942941,33.7484144 91.9958774,34.1609316 92.9013374,34.1609316 C93.7824237,34.1609316 94.4794285,33.7428818 94.9771352,32.8938278 C95.4091274,32.2003616 95.6247195,31.3681753 95.6247195,30.4131919 C95.6247195,29.456994 95.4177457,28.6322295 95.005414,27.948884 C94.5122858,27.1184519 93.8209367,26.7060697 92.918574,26.7060697 Z M61.9740364,26.8505924 C61.399977,26.8505924 60.8870536,27.0391061 60.4200495,27.4185626 C59.9552001,27.8034167 59.6418442,28.3014871 59.4978917,28.9181713 C59.4265214,29.2072167 59.3850458,29.4414757 59.3850458,29.6291798 L59.3850458,31.3681753 C59.3850458,32.1293822 59.6219144,32.7729199 60.0889184,33.2960894 C60.5528252,33.814401 61.1623005,34.0776725 61.9026661,34.0776725 C62.7799819,34.0776725 63.4602888,33.7428818 63.9472227,33.0674979 C64.4346951,32.3933285 64.6800473,31.5050063 64.6800473,30.3982134 C64.6800473,29.3830459 64.4499118,28.5435727 63.9936807,27.8860011 C63.4893756,27.2010364 62.8167444,26.8505924 61.9740364,26.8505924 Z M50.5138547,26.8505924 C49.9428924,26.8505924 49.4268718,27.0391061 48.9604064,27.4185626 C48.4943451,27.8034167 48.1901461,28.3014871 48.0461936,28.9181713 C47.9757659,29.2072167 47.9388688,29.4414757 47.9388688,29.6291798 L47.9388688,31.3681753 C47.9388688,32.1293822 48.168735,32.7729199 48.636547,33.2960894 C49.1005885,33.814401 49.7068319,34.0776725 50.4493521,34.0776725 C51.3199348,34.0776725 52.0046856,33.7428818 52.4901381,33.0674979 C52.9763986,32.3933285 53.2175763,31.5050063 53.2175763,30.3982134 C53.2175763,29.3830459 52.99175,28.5435727 52.5333643,27.8860011 C52.0302711,27.2010364 51.3589865,26.8505924 50.5138547,26.8505924 Z M38.0279608,23.13227 L37.9874279,23.13227 C37.8417248,23.8069792 37.6160331,24.7050171 37.2985027,25.9107225 L36.0965194,29.7444202 L39.9790627,29.7444202 L38.7611894,25.9107225 C38.6294911,25.521955 38.3837349,24.4816884 38.0279608,23.13227 Z M110.493977,26.5921788 C109.737586,26.5921788 109.122994,26.9805414 108.648718,27.6074812 C108.26305,28.1079805 108.031702,28.6648854 107.961948,29.4745365 L112.789407,29.4745365 C112.80193,28.6648854 112.655284,28.1315953 112.340986,27.6271827 C111.938754,26.9845896 111.321872,26.5921788 110.493977,26.5921788 Z M43.0238804,12.2452973 C44.5565908,12.2452973 45.581899,13.3257766 45.581899,14.893261 C45.581899,16.7891939 44.249968,17.6364937 42.939448,17.6364937 C41.4808011,17.6364937 40.3604223,16.6303673 40.3604223,14.9780045 C40.3604223,13.2834049 41.4701629,12.2452973 43.0238804,12.2452973 Z M65.5811981,12.2452973 C67.1139085,12.2452973 68.139082,13.3257766 68.139082,14.893261 C68.139082,16.7891939 66.8072856,17.6364937 65.496631,17.6364937 C64.0381188,17.6364937 62.9176054,16.6303673 62.9176054,14.9780045 C62.9176054,13.2834049 64.0274806,12.2452973 65.5811981,12.2452973 Z M85.242229,12.2452973 C86.7748048,12.2452973 87.8001129,13.3257766 87.8001129,14.893261 C87.8001129,16.7891939 86.4683166,17.6364937 85.157662,17.6364937 C83.699015,17.6364937 82.5786363,16.6303673 82.5786363,14.9780045 C82.5786363,13.2834049 83.6885115,12.2452973 85.242229,12.2452973 Z M71.0779216,12.2452973 C72.7268444,12.2452973 73.2024667,13.2939303 73.2024667,14.4166464 L73.2024667,16.2808679 C73.2024667,16.7468221 73.2236085,17.2023858 73.2763956,17.5200389 L72.1032298,17.5200389 L72.0186627,16.9481553 L71.9870174,16.9481553 C71.669891,17.3505519 71.1308434,17.6364937 70.4649452,17.6364937 C69.4289988,17.6364937 68.8478024,16.8845977 68.8478024,16.1008555 C68.8478024,14.7979921 69.9998264,14.1413651 71.9024503,14.1518905 L71.9024503,14.0671471 C71.9024503,13.7283081 71.7649616,13.1668151 70.8560004,13.1668151 C70.3485981,13.1668151 69.8201888,13.3257766 69.4712823,13.5481607 L69.2177159,12.7008609 C69.5981329,12.4678164 70.2640311,12.2452973 71.0779216,12.2452973 Z M79.3226702,10 L79.3226702,16.0690093 C79.3226702,16.598656 79.343812,17.1705395 79.3649538,17.5200389 L78.2022915,17.5200389 L78.1495044,16.7044504 L78.128228,16.7044504 C77.8218744,17.2764688 77.1981251,17.6364937 76.4476599,17.6364937 C75.221707,17.6364937 74.249186,16.5879956 74.249186,14.9991903 C74.2386824,13.2727444 75.3167776,12.2452973 76.5535034,12.2452973 C77.2615504,12.2452973 77.7689527,12.5420344 78.0015121,12.9232451 L78.0226539,12.9232451 L78.0226539,10 L79.3226702,10 Z M109.046776,12.2452973 C110.716706,12.2452973 111.266257,13.6222438 111.266257,14.7556203 C111.266257,14.9991903 111.24525,15.1898632 111.223974,15.306318 L107.778405,15.306318 C107.81005,16.2384962 108.539374,16.6410277 109.363768,16.6410277 C109.966241,16.6410277 110.399579,16.5562842 110.790635,16.4078482 L110.980911,17.3081802 C110.536934,17.4883275 109.923957,17.6259682 109.18413,17.6259682 C107.514066,17.6259682 106.531041,16.598656 106.531041,15.0203762 C106.531041,13.5905325 107.397853,12.2452973 109.046776,12.2452973 Z M98.5925112,10.8895366 L98.5925112,12.361887 L99.829237,12.361887 L99.829237,13.3363021 L98.5925112,13.3363021 L98.5925112,15.6135805 C98.5925112,16.2384962 98.7616453,16.5668097 99.2585441,16.5668097 C99.4803306,16.5668097 99.6494647,16.5349634 99.7658117,16.5032521 L99.7869535,17.498853 C99.5966776,17.573071 99.2585441,17.6259682 98.8462124,17.6259682 C98.3705901,17.6259682 97.9688966,17.4671417 97.7258336,17.2023858 C97.4509907,16.9056487 97.3241402,16.4396945 97.3241402,15.7618816 L97.3241402,13.3363021 L96.5843131,13.3363021 L96.5843131,12.361887 L97.3241402,12.361887 L97.3241402,11.1967992 L98.5925112,10.8895366 Z M35.5928876,10.3283135 C36.924684,10.3283135 37.8442833,10.6035949 38.4995433,11.1544274 C39.1865832,11.7157855 39.6094185,12.5630853 39.6094185,13.7812053 C39.6094185,15.0522225 39.1760797,16.0054517 38.4995433,16.6197069 C37.7913616,17.2658084 36.6604793,17.5941219 35.2757612,17.5941219 C34.5147924,17.5941219 33.9439648,17.5518851 33.5212643,17.498853 L33.5212643,10.4764796 C34.0919572,10.3812107 34.8212806,10.3283135 35.5928876,10.3283135 Z M47.3474381,12.361887 L47.8864857,14.7025882 C48.0028327,15.2534208 48.1190451,15.8147788 48.2141157,16.3761369 L48.2352575,16.3761369 C48.3409663,15.8147788 48.5101004,15.2428953 48.6580927,14.7132486 L49.3239909,12.361887 L50.3809443,12.361887 L51.0257008,14.649691 C51.1841967,15.2534208 51.3216854,15.8147788 51.4378978,16.3761369 L51.4590396,16.3761369 C51.5436066,15.8147788 51.659819,15.2534208 51.7973078,14.649691 L52.3680007,12.361887 L53.64701,12.361887 L52.0297325,17.5200389 L50.8249214,17.5200389 L50.2118102,15.4229077 C50.0533144,14.8827355 49.9369673,14.3954606 49.820755,13.7705449 L49.7996132,13.7705449 C49.6939044,14.406121 49.5565503,14.9145818 49.4085579,15.4229077 L48.7531633,17.5200389 L47.537714,17.5200389 L46.0156418,12.361887 L47.3474381,12.361887 Z M57.3153077,12.2452973 C58.2136306,12.2452973 59.1437335,12.8279761 59.1437335,14.4590182 L59.1437335,17.5200389 L57.8437171,17.5200389 L57.8437171,14.6073192 C57.8437171,13.8659488 57.5690088,13.3045907 56.8606925,13.3045907 C56.3427866,13.3045907 55.9835113,13.675276 55.8460226,14.0671471 C55.803739,14.1837368 55.7932355,14.3425634 55.7932355,14.4908644 L55.7932355,17.5200389 L54.4825809,17.5200389 L54.4825809,13.8976601 C54.4825809,13.3045907 54.4720773,12.8066553 54.4402974,12.361887 L55.5818179,12.361887 L55.6452431,13.1351038 L55.6768885,13.1351038 C55.8989443,12.7325723 56.4591337,12.2452973 57.3153077,12.2452973 Z M61.8395102,10 L61.8395102,17.5200389 L60.5288556,17.5200389 L60.5288556,10 L61.8395102,10 Z M91.7007007,12.2452973 C92.5990236,12.2452973 93.5292612,12.8279761 93.5292612,14.4590182 L93.5292612,17.5200389 L92.2291101,17.5200389 L92.2291101,14.6073192 C92.2291101,13.8659488 91.9542672,13.3045907 91.2462202,13.3045907 C90.7283143,13.3045907 90.3689044,13.675276 90.2314156,14.0671471 C90.1891321,14.1837368 90.1786285,14.3425634 90.1786285,14.4908644 L90.1786285,17.5200389 L88.8679739,17.5200389 L88.8679739,13.8976601 C88.8679739,13.3045907 88.8574704,12.8066553 88.8256904,12.361887 L89.9672109,12.361887 L90.0306362,13.1351038 L90.0624161,13.1351038 C90.2843373,12.7325723 90.8445267,12.2452973 91.7007007,12.2452973 Z M102.123186,10 L102.123186,13.0715462 L102.144327,13.0715462 C102.302823,12.8279761 102.514241,12.6266429 102.789084,12.4783418 C103.042785,12.3300408 103.349138,12.2452973 103.676903,12.2452973 C104.554219,12.2452973 105.473684,12.8279761 105.473684,14.480204 L105.473684,17.5200389 L104.173667,17.5200389 L104.173667,14.6285051 C104.173667,13.8764742 103.898959,13.3151162 103.180139,13.3151162 C102.672737,13.3151162 102.313461,13.6540901 102.175973,14.0459612 C102.133689,14.1518905 102.123186,14.2895312 102.123186,14.4378323 L102.123186,17.5200389 L100.812531,17.5200389 L100.812531,10 L102.123186,10 Z M70.1373152,15.9630799 C70.1373152,16.4715408 70.4649452,16.7044504 70.8771422,16.7044504 C71.395048,16.7044504 71.7755998,16.3654765 71.8918121,15.9947912 C71.9234574,15.8995223 71.9340957,15.793593 71.9340957,15.7088495 L71.9340957,14.9991903 C71.0144963,14.9780045 70.1373152,15.1792028 70.1373152,15.9630799 Z M85.210449,13.1986614 C84.2909844,13.1986614 83.9209362,14.0883329 83.9209362,14.9462931 C83.9209362,15.941894 84.4071967,16.6939249 85.1999455,16.6939249 C85.9397725,16.6939249 86.4576783,15.9630799 86.4576783,14.9251073 C86.4576783,14.1200443 86.0984031,13.1986614 85.210449,13.1986614 Z M42.9922351,13.1986614 C42.0727704,13.1986614 41.7027223,14.0883329 41.7027223,14.9462931 C41.7027223,15.941894 42.1889828,16.6939249 42.9817315,16.6939249 C43.7215586,16.6939249 44.2394644,15.9630799 44.2394644,14.9251073 C44.2394644,14.1200443 43.8800544,13.1986614 42.9922351,13.1986614 Z M65.5495528,13.1986614 C64.6299535,13.1986614 64.2600399,14.0883329 64.2600399,14.9462931 C64.2600399,15.941894 64.7463005,16.6939249 65.5389146,16.6939249 C66.2788762,16.6939249 66.7967821,15.9630799 66.7967821,14.9251073 C66.7967821,14.1200443 66.4373721,13.1986614 65.5495528,13.1986614 Z M76.8704951,13.2515586 C76.0354629,13.2515586 75.5704788,13.992929 75.5704788,14.9568186 C75.5704788,15.8995223 76.0354629,16.5879956 76.8599916,16.5879956 C77.388401,16.5879956 77.8535198,16.2278358 77.9803703,15.6664777 C78.0120156,15.5500229 78.0226539,15.4229077 78.0226539,15.285267 L78.0226539,14.5120503 C78.0226539,14.406121 78.0120156,14.2790057 77.9908739,14.1730764 C77.8746615,13.6646156 77.4624645,13.2515586 76.8704951,13.2515586 Z M35.7092347,11.3451003 C35.296903,11.3451003 35.0009183,11.3768116 34.8212806,11.4191833 L34.8212806,16.524438 C35.0009183,16.5562842 35.2757612,16.5562842 35.5401006,16.5562842 C37.2311722,16.5668097 38.2353386,15.6346315 38.2353386,13.823577 C38.2459768,12.2452973 37.336881,11.3451003 35.7092347,11.3451003 Z M108.972713,13.1351038 C108.169326,13.1351038 107.831192,13.8659488 107.778405,14.3954606 L110.04017,14.3954606 C110.050808,13.918846 109.83939,13.1351038 108.972713,13.1351038 Z" id="Combined-Shape" fill="#FFFFFF"></path>
                    </g>
                </g>
            </g>
        </g>
    </g>
</svg>