<?xml version="1.0" encoding="UTF-8"?>
<svg width="256px" height="80px" viewBox="0 0 256 80" version="1.1" xmlns="http://www.w3.org/2000/svg" xmlns:xlink="http://www.w3.org/1999/xlink">
    <title>brand/gokada-logo-hor</title>
    <g id="brand/gokada-logo-hor" stroke="none" stroke-width="1" fill="none" fill-rule="evenodd">
        <g id="brand/brand-logo">
            <circle id="Oval" fill="#00C795" fill-rule="nonzero" cx="40" cy="40" r="40"></circle>
            <path d="M39.994424,34.0002524 C38.3807703,33.9253705 36.8102032,34.5334222 35.6679489,35.6752654 C34.5256947,36.8171086 33.9174241,38.3871105 33.992333,40.0001835 C33.9174241,41.6132566 34.5256947,43.1832585 35.6679489,44.3251017 C36.8102032,45.4669449 38.3807703,46.0749966 39.994424,46.0001147 L45.996515,46.0001147 L46,40 L56,40 L56,56 L39.994424,56 C32.7528764,55.9943032 26.4172959,51.1289229 24.5454168,44.1360051 C22.6735377,37.1430873 25.7317516,29.7649655 32.0027237,26.1448115 C38.2736958,22.5246574 46.1949703,23.5644574 51.318369,28.6803134 L44.5159992,35.4802354 C43.2771103,34.3853226 41.641212,33.8498673 39.994424,34.0002524 Z" id="Shape" fill="#FFFFFF"></path>
        </g>
        <g id="Group" transform="translate(96.000000, 24.000000)" fill="#FFFFFF" fill-rule="nonzero">
            <g id="brand/brand-logotype">
                <path d="M15.4505089,32 C23.6989878,32 29.6083458,27.0114068 29.6083458,18.4942966 L29.6083458,14.1749049 L15.6351764,14.1749049 L15.6351764,20.1977186 L21.3598669,20.1977186 C21.2829222,22.904943 19.3439141,24.6387833 15.5120647,24.6387833 C11.0800462,24.6387833 8.80248118,21.4144487 8.80248118,15.9391635 C8.80248118,10.539924 11.2647137,7.36121673 15.5736205,7.36121673 C18.2512984,7.36121673 20.0671949,8.57794677 20.5904193,10.7072243 L29.2390109,10.7072243 C28.5772859,4.45627376 22.8372064,0 15.3889531,0 C6.89425099,0 0,5.77946768 0,16.0608365 C0,25.9163498 6.24791496,32 15.4505089,32 Z M44.0393614,32 C51.7338379,32 56.2889681,27.1330798 56.2889681,19.9543726 C56.2889681,12.7756654 51.7338379,7.90874525 44.0393614,7.90874525 C36.3448848,7.90874525 31.7897547,12.7756654 31.7897547,19.9543726 C31.7897547,27.1330798 36.3448848,32 44.0393614,32 Z M44.1009172,25.7946768 C41.8233521,25.7946768 40.4691243,23.5589354 40.4691243,19.8935361 C40.4691243,16.2281369 41.8233521,13.9923954 44.1009172,13.9923954 C46.2553706,13.9923954 47.6095985,16.2281369 47.6095985,19.8935361 C47.6095985,23.5589354 46.2553706,25.7946768 44.1009172,25.7946768 Z M67.1122029,31.5741445 L67.1122029,24.9429658 L68.389486,23.3460076 L73.2062283,31.5741445 L82.9320467,31.5741445 L74.6527899,18.4486692 L82.6858234,8.21292776 L73.1446725,8.21292776 L67.4199819,16.0608365 L67.1122029,16.0608365 L67.1122029,0.425855513 L58.6175008,0.425855513 L58.6175008,31.5741445 L67.1122029,31.5741445 Z M91.4883297,31.9391635 C94.5661203,31.9391635 96.8898522,30.904943 98.3210249,28.2889734 L98.5056923,28.2889734 L98.5056923,31.5741445 L106.446392,31.5741445 L106.446392,15.5741445 C106.446392,11.2547529 102.306764,7.90874525 95.5510133,7.90874525 C88.4874838,7.90874525 85.0095804,11.5589354 84.7171903,15.8174905 L92.5347785,15.8174905 C92.7348349,14.3726236 93.8120616,13.6882129 95.4279017,13.6882129 C96.9052412,13.6882129 97.95169,14.3574144 97.95169,15.5741445 L97.95169,15.634981 C97.95169,16.9885932 96.4435726,17.4144487 92.4732227,17.7034221 C87.5949245,18.0532319 83.7938531,20 83.7938531,25.1254753 C83.7938531,29.7794677 86.9639775,31.9391635 91.4883297,31.9391635 Z M94.2583412,26.6463878 C92.8117796,26.6463878 91.7961087,25.9467681 91.7961087,24.6387833 C91.7961087,23.4372624 92.6578901,22.5095057 94.6276761,22.2053232 C95.981904,21.9923954 97.1206865,21.7186312 98.0132458,21.3536122 L98.0132458,23.3003802 C98.0132458,25.4296578 96.1819604,26.6463878 94.2583412,26.6463878 Z M119.065358,31.878327 C122.389372,31.878327 124.666937,30.1140684 125.65183,27.7414449 L125.836497,27.7414449 L125.836497,31.5741445 L134.269644,31.5741445 L134.269644,0.425855513 L125.774942,0.425855513 L125.774942,12.2889734 L125.65183,12.2889734 C124.728493,9.91634981 122.512484,7.90874525 119.003802,7.90874525 C114.325561,7.90874525 109.77043,11.4372624 109.77043,19.8935361 C109.77043,27.9847909 114.017781,31.878327 119.065358,31.878327 Z M122.204705,25.4296578 C119.865584,25.4296578 118.511356,23.3612167 118.511356,19.8935361 C118.511356,16.4258555 119.865584,14.3574144 122.204705,14.3574144 C124.543825,14.3574144 125.959609,16.4258555 125.959609,19.8935361 C125.959609,23.3003802 124.543825,25.4296578 122.204705,25.4296578 Z M145.041938,31.9391635 C148.119728,31.9391635 150.44346,30.904943 151.874633,28.2889734 L152.0593,28.2889734 L152.0593,31.5741445 L160,31.5741445 L160,15.5741445 C160,11.2547529 155.860372,7.90874525 149.104621,7.90874525 C142.041092,7.90874525 138.563188,11.5589354 138.270798,15.8174905 L146.088386,15.8174905 C146.288443,14.3726236 147.365669,13.6882129 148.98151,13.6882129 C150.458849,13.6882129 151.505298,14.3574144 151.505298,15.5741445 L151.505298,15.634981 C151.505298,16.9885932 149.99718,17.4144487 146.026831,17.7034221 C141.148532,18.0532319 137.347461,20 137.347461,25.1254753 C137.347461,29.7794677 140.517585,31.9391635 145.041938,31.9391635 Z M147.811949,26.6463878 C146.365388,26.6463878 145.349717,25.9467681 145.349717,24.6387833 C145.349717,23.4372624 146.211498,22.5095057 148.181284,22.2053232 C149.535512,21.9923954 150.674294,21.7186312 151.566854,21.3536122 L151.566854,23.3003802 C151.566854,25.4296578 149.735568,26.6463878 147.811949,26.6463878 Z"></path>
            </g>
        </g>
    </g>
</svg>