<?xml version="1.0" encoding="UTF-8"?>
<svg width="116px" height="48px" viewBox="0 0 116 48" version="1.1" xmlns="http://www.w3.org/2000/svg" xmlns:xlink="http://www.w3.org/1999/xlink">
    <title>btn-playstore-content</title>
    <g id="Gokada-Website" stroke="none" stroke-width="1" fill="none" fill-rule="evenodd">
        <g id="Mobile" transform="translate(-176.000000, -2786.000000)">
            <g id="download" transform="translate(0.000000, 2556.000000)">
                <g id="btn-playstore" transform="translate(166.000000, 230.000000)">
                    <g id="btn-playstore-content" transform="translate(10.000000, 0.000000)">
                        <rect id="Rectangle" x="0" y="0" width="116" height="48"></rect>
                        <g id="Group-2" transform="translate(0.000000, 11.000000)">
                            <path d="M0.483401744,0.042334529 C0.211570302,0.140976625 4.13750833e-14,0.404145825 4.13750833e-14,0.744201471 L4.13750833e-14,25.2556498 C4.13750833e-14,25.592986 0.208109761,25.8545482 0.476599992,25.9550445 L13.0467159,12.9952284 L0.483401744,0.042334529" id="Fill-2" fill="#00D6FF"></path>
                            <path d="M16.5880424,9.3441111 L1.07646683,0.0993194991 C0.882199233,-0.0163810042 0.668958326,-0.024910208 0.483401744,0.042334529 L13.0467159,12.9952284 L16.5880424,9.3441111" id="Fill-3" fill="#00F076"></path>
                            <path d="M1.07646683,25.9006554 L16.5938895,16.652279 L13.0467159,12.9952284 L0.476599992,25.9550445 C0.66370785,26.0251323 0.879812653,26.0178392 1.07646683,25.9006554" id="Fill-4" fill="#FF3A44"></path>
                            <path d="M16.5938895,16.652279 L21.6399546,13.6448076 C22.1200151,13.3587702 22.1200151,12.6412046 21.6399546,12.3550436 L16.5880424,9.3441111 L13.0467159,12.9952284 L16.5938895,16.652279" id="Fill-5" fill="#FFD000"></path>
                        </g>
                        <path d="M64.5106447,26.2132828 C65.574498,26.2132828 66.4254717,26.7330139 66.9574664,27.2527451 L66.9574664,27.2527451 L66.9574664,26.5251214 L68.8722934,26.5251214 L68.8722934,34.4258335 C68.8722934,37.6485659 66.9574664,39 64.6170164,39 C62.3829382,39 61.1063414,37.5446197 60.5744829,36.4010781 L60.5744829,36.4010781 L62.2765664,35.6733214 C62.4893099,36.4010781 63.3404197,37.2326479 64.5106447,37.2326479 C65.9999849,37.2326479 66.9574664,36.2971318 66.9574664,34.633726 L66.9574664,34.633726 L66.9574664,34.0100486 L66.8510947,34.0100486 C66.4254717,34.5297797 65.574498,35.049644 64.5106447,35.049644 C62.1701947,35.049644 60.1488599,33.1783456 60.1488599,30.6833699 C60.1488599,28.1883942 62.2765664,26.2132828 64.5106447,26.2132828 Z M109.19153,26.5251214 L111.531843,32.1387502 L111.638215,32.1387502 L113.872293,26.5251214 L116,26.5251214 L110.574498,38.7921075 L108.553163,38.7921075 L110.574498,34.4258335 L107.063823,26.5251214 L109.19153,26.5251214 Z M77.4893553,26.317229 C79.8298053,26.317229 80.8936586,28.084448 81.3191454,29.1240434 L81.3191454,29.1240434 L81.5318888,29.6437745 L75.4680204,32.1387502 C76.0000151,33.0743994 76.6382454,33.4901843 77.7020987,33.4901843 C78.765952,33.4901843 79.4041822,32.9704532 79.936177,32.2426965 L79.936177,32.2426965 L81.4255171,33.2822919 C81.0000303,34.0100486 79.7234336,35.2575364 77.7020987,35.2575364 C75.1489053,35.2575364 73.2340783,33.2822919 73.2340783,30.7873162 C73.2340783,28.084448 75.1489053,26.317229 77.4893553,26.317229 Z M44.8298355,26.317229 C47.383029,26.317229 49.4042276,28.084448 49.4042276,30.7873162 C49.4042276,33.3862381 47.383029,35.2575364 44.8298355,35.2575364 C42.2766421,35.2575364 40.2553072,33.2822919 40.2553072,30.7873162 C40.2553072,28.1883942 42.2766421,26.317229 44.8298355,26.317229 Z M54.7233579,26.317229 C57.2765513,26.317229 59.2978862,28.084448 59.2978862,30.7873162 C59.2978862,33.3862381 57.2765513,35.2575364 54.7233579,35.2575364 C52.1701645,35.2575364 50.1489658,33.2822919 50.1489658,30.7873162 C50.1489658,28.1883942 52.1701645,26.317229 54.7233579,26.317229 Z M33.1275855,21.4312238 C35.2552921,21.4312238 36.7446322,22.2627936 37.9148572,23.302389 L37.9148572,23.302389 L36.5318888,24.6538231 C35.6807789,23.9261995 34.5106901,23.302389 33.0212138,23.302389 C30.255277,23.302389 28.0213349,25.4855261 28.0213349,28.2923405 C28.0213349,31.0991549 30.1489053,33.2822919 33.0212138,33.2822919 C34.8298053,33.2822919 35.8936586,32.5546683 36.5318888,31.9308578 C37.0638836,31.4111266 37.4893704,30.5794237 37.5957421,29.5398283 L37.5957421,29.5398283 L33.0212138,29.5398283 L33.0212138,27.6686631 L39.6169408,27.6686631 C39.7234487,27.9805018 39.7234487,28.3962867 39.7234487,28.8122047 C39.7234487,30.1636388 39.2978257,31.9308578 38.0212289,33.1783456 C36.7446322,34.5297797 35.2552921,35.1535902 33.1275855,35.1535902 C29.2977954,35.1535902 26,32.034804 26,28.2923405 C26,24.5498769 29.2977954,21.4312238 33.1275855,21.4312238 Z M102.914918,26.2132828 C105.14886,26.2132828 106.957451,27.5647168 107.170195,29.851667 L107.170195,29.851667 L107.170195,34.8416184 L105.255232,34.8416184 L105.255232,33.8021561 L105.14886,33.8021561 C104.617001,34.4258335 103.978635,35.049644 102.595666,35.049644 C100.893583,35.049644 99.2978711,33.9061023 99.2978711,32.1387502 C99.2978711,30.267585 101.212698,29.2279896 103.127661,29.2279896 C103.978635,29.2279896 104.829745,29.5398283 105.14886,29.7477208 L105.14886,29.7477208 L105.14886,29.6437745 C105.042488,28.6041791 104.085143,27.9805018 103.021289,27.9805018 C102.276551,27.9805018 101.638321,28.1883942 101.212698,28.9161509 L101.212698,28.9161509 L99.4042428,28.1883942 C99.9361013,26.8369601 101.425441,26.2132828 102.914918,26.2132828 Z M72.170225,21.8470087 L72.170225,34.8416184 L70.1488901,34.8416184 L70.1488901,21.8470087 L72.170225,21.8470087 Z M98.0212743,21.8470087 L98.0212743,34.8416184 L95.9999395,34.8416184 L95.9999395,21.8470087 L98.0212743,21.8470087 Z M90.5744375,21.8470087 C92.8085158,21.8470087 94.9360862,23.4063353 94.9360862,25.901311 C94.9360862,28.3962867 92.8085158,29.9557463 90.5744375,29.9557463 L90.5744375,29.9557463 L87.8085007,29.9557463 L87.8085007,34.8416184 L85.7871658,34.8416184 L85.7871658,21.8470087 Z M103.234033,30.8912624 C102.276551,30.8912624 101.106326,31.2032342 101.106326,32.2426965 C101.106326,33.0743994 102.063808,33.3862381 102.702038,33.3862381 C103.765891,33.3862381 104.829745,32.5546683 105.042488,31.3071804 C104.51063,31.0992879 104.085143,30.8912624 103.234033,30.8912624 Z M64.6170164,27.9805018 C63.234048,27.9805018 62.063823,29.1240434 62.063823,30.6833699 C62.063823,32.2426965 63.234048,33.3862381 64.6170164,33.3862381 C65.9999849,33.3862381 67.0638382,32.2426965 67.0638382,30.6833699 C67.0638382,29.1240434 65.9999849,27.9805018 64.6170164,27.9805018 Z M44.8298355,27.9805018 C43.4467309,27.9805018 42.2766421,29.1240434 42.2766421,30.6833699 C42.2766421,32.2426965 43.4467309,33.3862381 44.8298355,33.3862381 C46.212804,33.3862381 47.383029,32.2426965 47.383029,30.6833699 C47.383029,29.0200972 46.212804,27.9805018 44.8298355,27.9805018 Z M54.7233579,27.9805018 C53.3403895,27.9805018 52.1701645,29.1240434 52.1701645,30.6833699 C52.1701645,32.2426965 53.3403895,33.3862381 54.7233579,33.3862381 C56.1063263,33.3862381 57.2765513,32.2426965 57.2765513,30.6833699 C57.2765513,29.0200972 56.1063263,27.9805018 54.7233579,27.9805018 Z M77.4893553,27.9805018 C76.5318737,27.9805018 75.1489053,28.9161509 75.1489053,30.5794237 L75.1489053,30.5794237 L79.1914388,28.9161509 C78.9786954,28.3962867 78.2339572,27.9805018 77.4893553,27.9805018 Z M90.6808092,23.6143608 L87.8085007,23.6143608 L87.8085007,28.084448 L90.6808092,28.084448 C92.0637776,28.084448 92.9148875,26.9409064 93.0212592,25.7973647 C93.0212592,24.8618487 92.1701493,23.6143608 90.6808092,23.6143608 L90.6808092,23.6143608 Z M29.7385366,11 C30.2861942,11 30.7756948,11.092234 31.2070382,11.276835 C31.6381092,11.4614361 32.0080267,11.7167099 32.3165183,12.0426566 L31.4383047,12.8824782 C31.2179341,12.6548879 30.9723667,12.4810674 30.7017385,12.3610168 C30.4309742,12.2410994 30.1069559,12.1810741 29.7291388,12.1810741 C29.4206472,12.1810741 29.1279548,12.2351101 28.8509252,12.3426499 C28.5738957,12.4503228 28.331597,12.602582 28.1237568,12.7994277 C27.9160528,12.9964065 27.7508429,13.2346443 27.6279911,13.5145405 C27.5052755,13.7945698 27.4438495,14.1068077 27.4438495,14.4511213 C27.4438495,14.7958342 27.5052755,15.107939 27.6279911,15.3878352 C27.7508429,15.6678645 27.917551,15.9061023 28.1285238,16.102948 C28.3393604,16.2999268 28.5832935,16.4521861 28.860323,16.5597258 C29.1373525,16.6673987 29.4331776,16.7213017 29.7480705,16.7213017 C30.1069559,16.7213017 30.4105443,16.6704598 30.6592443,16.5690424 C30.9079444,16.4674918 31.1204154,16.3367938 31.2966574,16.1768151 C31.4225056,16.0660811 31.5311927,15.9261995 31.6224463,15.7569042 C31.7136998,15.5878752 31.7845235,15.3986158 31.8350535,15.1893924 L29.7102071,15.1893924 L29.7102071,14.1282358 L33.024755,14.1282358 C33.0436867,14.2019698 33.0593496,14.2912757 33.0720162,14.3957543 C33.0845465,14.5004991 33.0909479,14.6049777 33.0909479,14.7095894 C33.0909479,15.1340254 33.024755,15.5339722 32.8926416,15.9091635 C32.760392,16.2844879 32.552688,16.6197511 32.2692571,16.9149531 C31.9671669,17.2287882 31.6051489,17.4718174 31.1833395,17.6440407 C30.76153,17.816131 30.2799291,17.9023757 29.7385366,17.9023757 C29.2475378,17.9023757 28.7847324,17.816131 28.3505288,17.6440407 C27.9160528,17.4718174 27.5383719,17.2319824 27.2172138,16.9242696 C26.8961919,16.61669 26.6412266,16.2521461 26.4523181,15.8307713 C26.2635458,15.4093964 26.1690234,14.9495575 26.1690234,14.4511213 C26.1690234,13.9528183 26.2635458,13.4931124 26.4523181,13.0716044 C26.6412266,12.6503627 26.8961919,12.2858189 27.2172138,11.9781061 C27.5383719,11.6705264 27.9160528,11.4306914 28.3505288,11.258335 C28.7847324,11.0862448 29.2475378,11 29.7385366,11 Z M60.4189432,11 C60.9224723,11 61.3899085,11.0891728 61.8212519,11.2676516 C62.252323,11.4459972 62.625373,11.6906235 62.9401298,12.0011313 C63.2548865,12.3119052 63.5020884,12.6780462 63.681463,13.0992879 C63.8609737,13.5207959 63.9505929,13.9713183 63.9505929,14.4511213 C63.9505929,14.9310574 63.8609737,15.3817129 63.681463,15.8030878 C63.5020884,16.2244626 63.2548865,16.5906036 62.9401298,16.9011113 C62.625373,17.2118853 62.252323,17.4565116 61.8212519,17.6347242 C61.3899085,17.8132029 60.9224723,17.9023757 60.4189432,17.9023757 C59.9151417,17.9023757 59.4477055,17.8132029 59.0166345,17.6347242 C58.5852911,17.4565116 58.2123772,17.2118853 57.8974842,16.9011113 C57.5827275,16.5906036 57.3356618,16.2244626 57.1562873,15.8030878 C56.9769127,15.3817129 56.8871573,14.9310574 56.8871573,14.4511213 C56.8871573,13.9713183 56.9769127,13.5207959 57.1562873,13.0992879 C57.3356618,12.6780462 57.5827275,12.3119052 57.8974842,12.0011313 C58.2123772,11.6906235 58.5852911,11.4459972 59.0166345,11.2676516 C59.4477055,11.0891728 59.9151417,11 60.4189432,11 Z M38.4356836,11.147601 L38.4356836,12.3288081 L35.4233621,12.3288081 L35.4233621,13.8605843 L38.1334572,13.8605843 L38.1334572,15.0417914 L35.4233621,15.0417914 L35.4233621,16.5735676 L38.4356836,16.5735676 L38.4356836,17.7547747 L34.148536,17.7547747 L34.148536,11.147601 L38.4356836,11.147601 Z M44.2053614,11.147601 L44.2053614,12.3288081 L42.3166847,12.3288081 L42.3166847,17.7547747 L41.0418586,17.7547747 L41.0418586,12.3288081 L39.1531819,12.3288081 L39.1531819,11.147601 L44.2053614,11.147601 Z M48.4640434,11.147601 L48.4640434,17.7547747 L47.1892172,17.7547747 L47.1892172,11.147601 L48.4640434,11.147601 Z M54.4224935,11.147601 L54.4224935,12.3288081 L52.533953,12.3288081 L52.533953,17.7547747 L51.2591269,17.7547747 L51.2591269,12.3288081 L49.3704502,12.3288081 L49.3704502,11.147601 L54.4224935,11.147601 Z M66.4623817,11.147601 L69.1820108,15.5769615 L69.2576014,15.5769615 L69.1820108,14.3035203 L69.1820108,11.147601 L70.4474391,11.147601 L70.4474391,17.7547747 L69.1064201,17.7547747 L66.235746,13.0762627 L66.1601553,13.0762627 L66.235746,14.3497039 L66.235746,17.7547747 L64.9798516,17.7547747 L64.9798516,11.147601 L66.4623817,11.147601 Z M60.4189432,12.1810741 C60.1040503,12.1810741 59.8098596,12.2364411 59.5359627,12.3471751 C59.2620658,12.4579091 59.0227635,12.6117655 58.8183282,12.8086112 C58.6136205,13.0055899 58.4531777,13.2439609 58.3367272,13.523724 C58.2201406,13.8037532 58.1619834,14.1129301 58.1619834,14.4511213 C58.1619834,14.7895788 58.2201406,15.0987556 58.3367272,15.3785187 C58.4531777,15.6585479 58.6136205,15.8969189 58.8183282,16.0937646 C59.0227635,16.2907433 59.2620658,16.4444666 59.5359627,16.5552006 C59.8098596,16.6659347 60.1040503,16.7213017 60.4189432,16.7213017 C60.7335638,16.7213017 61.0278906,16.6659347 61.3017875,16.5552006 C61.5756845,16.4444666 61.8148506,16.2907433 62.0195582,16.0937646 C62.2239935,15.8969189 62.3845725,15.6585479 62.5011592,15.3785187 C62.6174735,15.0987556 62.6757668,14.7895788 62.6757668,14.4511213 C62.6757668,14.1129301 62.6174735,13.8037532 62.5011592,13.523724 C62.3845725,13.2439609 62.2239935,13.0055899 62.0195582,12.8086112 C61.8148506,12.6117655 61.5756845,12.4579091 61.3017875,12.3471751 C61.0278906,12.2364411 60.7335638,12.1810741 60.4189432,12.1810741 Z" id="Combined-Shape" fill="#FFFFFF"></path>
                    </g>
                </g>
            </g>
        </g>
    </g>
</svg>